<svg width="159" height="95" viewBox="0 0 159 95" fill="none" xmlns="http://www.w3.org/2000/svg">
<path d="M39.248 64.276C39.6293 64.276 39.9227 64.4667 40.128 64.848C40.3627 65.2 40.48 65.6547 40.48 66.212C40.48 66.8867 40.3773 67.4147 40.172 67.796C39.9667 68.1773 39.644 68.5147 39.204 68.808C37.4733 69.952 34.716 71.8293 30.932 74.44C29.788 80.512 28.3067 85.2933 26.488 88.784C24.6693 92.2747 22.3667 94.02 19.58 94.02C18.084 94.02 16.8667 93.5507 15.928 92.612C14.9893 91.7027 14.52 90.5 14.52 89.004C14.52 87.6253 14.828 86.232 15.444 84.824C16.06 83.416 17.204 81.788 18.876 79.94C20.5773 78.092 22.968 75.98 26.048 73.604L26.18 72.768C23.8627 73.736 21.5893 74.22 19.36 74.22C16.0747 74.22 13.1853 73.5893 10.692 72.328C8.19867 71.0373 6.26267 69.2187 4.884 66.872C3.50533 64.5253 2.816 61.7973 2.816 58.688C2.816 54.3467 3.63733 50.5187 5.28 47.204C6.92267 43.86 9.18133 41.2787 12.056 39.46C14.96 37.612 18.2013 36.688 21.78 36.688C25.212 36.688 27.7787 37.4947 29.48 39.108C31.2107 40.692 32.076 42.804 32.076 45.444C32.076 47.1747 31.7533 48.568 31.108 49.624C30.492 50.6507 29.5973 51.164 28.424 51.164C27.632 51.164 26.9867 50.9733 26.488 50.592C26.0187 50.2107 25.784 49.6827 25.784 49.008C25.784 48.7147 25.8427 48.216 25.96 47.512C26.136 46.6907 26.224 46.0453 26.224 45.576C26.224 44.344 25.8427 43.3907 25.08 42.716C24.3467 42.0413 23.1 41.704 21.34 41.704C19.1987 41.704 17.204 42.32 15.356 43.552C13.5373 44.784 12.0707 46.632 10.956 49.096C9.84133 51.5307 9.284 54.464 9.284 57.896C9.284 61.416 10.2373 64.144 12.144 66.08C14.08 67.9867 16.8667 68.94 20.504 68.94C22.528 68.94 24.64 68.4853 26.84 67.576L27.456 62.208H22.968C22.1467 62.208 21.516 62.0173 21.076 61.636C20.636 61.2253 20.416 60.5653 20.416 59.656C20.416 58.8347 20.636 58.1893 21.076 57.72C21.516 57.2507 22.1027 57.016 22.836 57.016H31.064C31.7093 57.016 32.2373 57.236 32.648 57.676C33.088 58.0867 33.264 58.688 33.176 59.48C33.088 60.4187 32.7947 62.5453 32.296 65.86L31.812 69.204C34.1587 67.444 36.3 65.9187 38.236 64.628C38.6173 64.3933 38.9547 64.276 39.248 64.276ZM20.064 89.752C20.8267 89.752 21.6627 88.8867 22.572 87.156C23.4813 85.4253 24.332 82.6387 25.124 78.796C22.8947 80.7027 21.2813 82.4187 20.284 83.944C19.316 85.4987 18.832 86.8627 18.832 88.036C18.832 89.18 19.2427 89.752 20.064 89.752ZM40.4274 74.22C39.3127 74.22 38.5207 73.6333 38.0514 72.46C37.6114 71.2867 37.3914 69.4093 37.3914 66.828C37.3914 63.0147 37.9341 59.392 39.0194 55.96C39.2834 55.1093 39.7087 54.4933 40.2954 54.112C40.9114 53.7013 41.7621 53.496 42.8474 53.496C43.4341 53.496 43.8447 53.5693 44.0794 53.716C44.3141 53.8627 44.4314 54.1413 44.4314 54.552C44.4314 55.0213 44.2114 56.0773 43.7714 57.72C43.4781 58.8933 43.2434 59.92 43.0674 60.8C42.8914 61.68 42.7447 62.7653 42.6274 64.056C43.5954 61.5333 44.6807 59.48 45.8834 57.896C47.0861 56.312 48.2594 55.1827 49.4034 54.508C50.5767 53.8333 51.6474 53.496 52.6154 53.496C54.5221 53.496 55.4754 54.4493 55.4754 56.356C55.4754 56.7373 55.3434 57.6613 55.0794 59.128C54.8447 60.3013 54.7274 61.0347 54.7274 61.328C54.7274 62.3547 55.0941 62.868 55.8274 62.868C56.6487 62.868 57.7047 62.2227 58.9954 60.932C59.3767 60.5507 59.7727 60.36 60.1834 60.36C60.5647 60.36 60.8581 60.536 61.0634 60.888C61.2981 61.2107 61.4154 61.6507 61.4154 62.208C61.4154 63.2933 61.1221 64.144 60.5354 64.76C59.7141 65.6107 58.7461 66.344 57.6314 66.96C56.5461 67.5467 55.3874 67.84 54.1554 67.84C52.6007 67.84 51.4127 67.444 50.5914 66.652C49.7994 65.86 49.4034 64.7893 49.4034 63.44C49.4034 63 49.4474 62.56 49.5354 62.12C49.5941 61.5333 49.6234 61.1373 49.6234 60.932C49.6234 60.4627 49.4621 60.228 49.1394 60.228C48.6994 60.228 48.1127 60.7267 47.3794 61.724C46.6754 62.692 45.9714 63.9827 45.2674 65.596C44.5634 67.2093 43.9914 68.9107 43.5514 70.7C43.2287 72.0787 42.8474 73.0173 42.4074 73.516C41.9967 73.9853 41.3367 74.22 40.4274 74.22ZM76.9508 64.188C77.3322 64.188 77.6255 64.364 77.8308 64.716C78.0655 65.068 78.1828 65.552 78.1828 66.168C78.1828 67.3413 77.9042 68.2507 77.3468 68.896C76.2615 70.216 74.7215 71.4333 72.7268 72.548C70.7615 73.6627 68.6495 74.22 66.3908 74.22C63.3108 74.22 60.9202 73.384 59.2188 71.712C57.5175 70.04 56.6668 67.752 56.6668 64.848C56.6668 62.824 57.0922 60.9467 57.9428 59.216C58.7935 57.456 59.9668 56.0627 61.4628 55.036C62.9882 54.0093 64.7042 53.496 66.6108 53.496C68.3122 53.496 69.6762 54.0093 70.7028 55.036C71.7295 56.0333 72.2428 57.3973 72.2428 59.128C72.2428 61.152 71.5095 62.8973 70.0428 64.364C68.6055 65.8013 66.1562 66.9453 62.6948 67.796C63.4282 69.1453 64.8215 69.82 66.8748 69.82C68.1948 69.82 69.6908 69.3653 71.3628 68.456C73.0642 67.5173 74.5308 66.3 75.7628 64.804C76.1148 64.3933 76.5108 64.188 76.9508 64.188ZM65.8628 57.808C64.7775 57.808 63.8535 58.4387 63.0908 59.7C62.3575 60.9613 61.9908 62.4867 61.9908 64.276V64.364C63.7215 63.9533 65.0855 63.3373 66.0828 62.516C67.0802 61.6947 67.5788 60.7413 67.5788 59.656C67.5788 59.0987 67.4175 58.6587 67.0948 58.336C66.8015 57.984 66.3908 57.808 65.8628 57.808ZM94.2243 64.188C94.6056 64.188 94.8989 64.364 95.1043 64.716C95.3389 65.068 95.4563 65.552 95.4563 66.168C95.4563 67.3413 95.1776 68.2507 94.6203 68.896C93.5349 70.216 91.9949 71.4333 90.0003 72.548C88.0349 73.6627 85.9229 74.22 83.6643 74.22C80.5843 74.22 78.1936 73.384 76.4923 71.712C74.7909 70.04 73.9403 67.752 73.9403 64.848C73.9403 62.824 74.3656 60.9467 75.2163 59.216C76.0669 57.456 77.2403 56.0627 78.7363 55.036C80.2616 54.0093 81.9776 53.496 83.8843 53.496C85.5856 53.496 86.9496 54.0093 87.9763 55.036C89.0029 56.0333 89.5163 57.3973 89.5163 59.128C89.5163 61.152 88.7829 62.8973 87.3163 64.364C85.8789 65.8013 83.4296 66.9453 79.9683 67.796C80.7016 69.1453 82.0949 69.82 84.1483 69.82C85.4683 69.82 86.9643 69.3653 88.6363 68.456C90.3376 67.5173 91.8043 66.3 93.0363 64.804C93.3883 64.3933 93.7843 64.188 94.2243 64.188ZM83.1363 57.808C82.0509 57.808 81.1269 58.4387 80.3643 59.7C79.6309 60.9613 79.2643 62.4867 79.2643 64.276V64.364C80.9949 63.9533 82.3589 63.3373 83.3563 62.516C84.3536 61.6947 84.8523 60.7413 84.8523 59.656C84.8523 59.0987 84.6909 58.6587 84.3683 58.336C84.0749 57.984 83.6643 57.808 83.1363 57.808ZM94.9977 74.22C93.8831 74.22 93.0911 73.6333 92.6217 72.46C92.1817 71.2867 91.9617 69.4093 91.9617 66.828C91.9617 63.0147 92.5044 59.392 93.5897 55.96C93.8537 55.1093 94.2791 54.4933 94.8657 54.112C95.4817 53.7013 96.3324 53.496 97.4177 53.496C98.0044 53.496 98.4151 53.5693 98.6497 53.716C98.8844 53.8627 99.0017 54.1413 99.0017 54.552C99.0017 55.0213 98.7817 56.0773 98.3417 57.72C98.0484 58.8933 97.8137 59.92 97.6377 60.8C97.4617 61.68 97.3151 62.7653 97.1977 64.056C98.1657 61.5333 99.2511 59.48 100.454 57.896C101.656 56.312 102.83 55.1827 103.974 54.508C105.147 53.8333 106.218 53.496 107.186 53.496C109.092 53.496 110.046 54.4493 110.046 56.356C110.046 57.5 109.723 59.568 109.078 62.56C108.52 65.112 108.242 66.7987 108.242 67.62C108.242 68.7933 108.667 69.38 109.518 69.38C110.104 69.38 110.794 69.028 111.586 68.324C112.407 67.5907 113.492 66.4173 114.842 64.804C115.194 64.3933 115.59 64.188 116.03 64.188C116.411 64.188 116.704 64.364 116.91 64.716C117.144 65.068 117.262 65.552 117.262 66.168C117.262 67.3413 116.983 68.2507 116.426 68.896C115.164 70.4507 113.8 71.7267 112.334 72.724C110.896 73.7213 109.254 74.22 107.406 74.22C105.91 74.22 104.78 73.7947 104.018 72.944C103.255 72.064 102.874 70.8027 102.874 69.16C102.874 68.3387 103.079 66.872 103.49 64.76C103.871 62.912 104.062 61.636 104.062 60.932C104.062 60.4627 103.9 60.228 103.578 60.228C103.196 60.228 102.654 60.7267 101.95 61.724C101.275 62.692 100.571 63.9827 99.8377 65.596C99.1337 67.2093 98.5617 68.9107 98.1217 70.7C97.7991 72.0787 97.4177 73.0173 96.9777 73.516C96.5671 73.9853 95.9071 74.22 94.9977 74.22ZM133.326 64.188C133.707 64.188 134.001 64.364 134.206 64.716C134.441 65.068 134.558 65.552 134.558 66.168C134.558 67.3413 134.279 68.2507 133.722 68.896C132.637 70.216 131.097 71.4333 129.102 72.548C127.137 73.6627 125.025 74.22 122.766 74.22C119.686 74.22 117.295 73.384 115.594 71.712C113.893 70.04 113.042 67.752 113.042 64.848C113.042 62.824 113.467 60.9467 114.318 59.216C115.169 57.456 116.342 56.0627 117.838 55.036C119.363 54.0093 121.079 53.496 122.986 53.496C124.687 53.496 126.051 54.0093 127.078 55.036C128.105 56.0333 128.618 57.3973 128.618 59.128C128.618 61.152 127.885 62.8973 126.418 64.364C124.981 65.8013 122.531 66.9453 119.07 67.796C119.803 69.1453 121.197 69.82 123.25 69.82C124.57 69.82 126.066 69.3653 127.738 68.456C129.439 67.5173 130.906 66.3 132.138 64.804C132.49 64.3933 132.886 64.188 133.326 64.188ZM122.238 57.808C121.153 57.808 120.229 58.4387 119.466 59.7C118.733 60.9613 118.366 62.4867 118.366 64.276V64.364C120.097 63.9533 121.461 63.3373 122.458 62.516C123.455 61.6947 123.954 60.7413 123.954 59.656C123.954 59.0987 123.793 58.6587 123.47 58.336C123.177 57.984 122.766 57.808 122.238 57.808ZM148.751 59.524C149.397 59.524 149.939 59.7587 150.379 60.228C150.849 60.668 151.083 61.2253 151.083 61.9C151.083 62.2813 150.995 62.692 150.819 63.132C150.35 64.2173 149.69 65.1267 148.839 65.86C147.989 66.5933 147.05 66.96 146.023 66.96C145.202 66.96 144.498 66.6667 143.911 66.08C143.354 65.4933 143.075 64.7013 143.075 63.704C143.075 63.1467 143.105 62.5453 143.163 61.9C143.222 61.4307 143.251 61.108 143.251 60.932C143.251 60.6973 143.193 60.5213 143.075 60.404C142.987 60.2867 142.87 60.228 142.723 60.228C142.313 60.228 141.755 60.7267 141.051 61.724C140.347 62.692 139.643 63.9827 138.939 65.596C138.235 67.2093 137.663 68.9107 137.223 70.7C136.901 72.108 136.534 73.0467 136.123 73.516C135.713 73.9853 135.038 74.22 134.099 74.22C132.985 74.22 132.193 73.6333 131.723 72.46C131.283 71.2867 131.063 69.4093 131.063 66.828C131.063 63.0147 131.606 59.392 132.691 55.96C132.955 55.1093 133.381 54.4933 133.967 54.112C134.583 53.7013 135.434 53.496 136.519 53.496C137.106 53.496 137.517 53.5693 137.751 53.716C137.986 53.8627 138.103 54.1413 138.103 54.552C138.103 55.0213 137.883 56.0773 137.443 57.72C137.15 58.8933 136.915 59.92 136.739 60.8C136.563 61.68 136.417 62.7653 136.299 64.056C137.267 61.5333 138.353 59.48 139.555 57.896C140.758 56.312 141.931 55.1827 143.075 54.508C144.219 53.8333 145.261 53.496 146.199 53.496C147.05 53.496 147.695 53.7453 148.135 54.244C148.605 54.7133 148.839 55.4173 148.839 56.356C148.839 56.9133 148.678 57.9693 148.355 59.524H148.751Z" fill="#457A14"/>
<rect x="12" y="77" width="21" height="17" fill="white"/>
<path d="M46.457 39.719L46.212 33.741L65.665 13.7H71.251L56.208 29.576L53.464 32.614L46.457 39.719ZM42.145 48V13.7H47.045V48H42.145ZM66.449 48L52.386 31.634L55.669 28.008L72.182 48H66.449ZM86.6523 48.294C84.039 48.294 81.7196 47.7223 79.6943 46.579C77.669 45.4357 76.0683 43.8677 74.8923 41.875C73.7163 39.8497 73.1283 37.563 73.1283 35.015C73.1283 32.4343 73.7163 30.1477 74.8923 28.155C76.0683 26.1623 77.669 24.6107 79.6943 23.5C81.7196 22.3567 84.039 21.785 86.6523 21.785C89.233 21.785 91.536 22.3567 93.5613 23.5C95.6193 24.6107 97.22 26.1623 98.3633 28.155C99.5393 30.115 100.127 32.4017 100.127 35.015C100.127 37.5957 99.5393 39.8823 98.3633 41.875C97.22 43.8677 95.6193 45.4357 93.5613 46.579C91.536 47.7223 89.233 48.294 86.6523 48.294ZM86.6523 44.178C88.3183 44.178 89.8046 43.8023 91.1113 43.051C92.4506 42.2997 93.496 41.238 94.2473 39.866C94.9986 38.4613 95.3743 36.8443 95.3743 35.015C95.3743 33.153 94.9986 31.5523 94.2473 30.213C93.496 28.841 92.4506 27.7793 91.1113 27.028C89.8046 26.2767 88.3183 25.901 86.6523 25.901C84.9863 25.901 83.5 26.2767 82.1933 27.028C80.8866 27.7793 79.8413 28.841 79.0573 30.213C78.2733 31.5523 77.8813 33.153 77.8813 35.015C77.8813 36.8443 78.2733 38.4613 79.0573 39.866C79.8413 41.238 80.8866 42.2997 82.1933 43.051C83.5 43.8023 84.9863 44.178 86.6523 44.178ZM115.551 48.294C112.937 48.294 110.912 47.5917 109.475 46.187C108.037 44.7823 107.319 42.7733 107.319 40.16V16.346H112.023V39.964C112.023 41.3687 112.366 42.4467 113.052 43.198C113.77 43.9493 114.783 44.325 116.09 44.325C117.56 44.325 118.785 43.9167 119.765 43.1L121.235 46.481C120.516 47.1017 119.65 47.559 118.638 47.853C117.658 48.147 116.629 48.294 115.551 48.294ZM102.909 25.901V22.03H119.471V25.901H102.909Z" fill="#234A0F"/>
<path d="M158.494 60.6633C156.165 58.1564 150.027 55.3389 144.1 64.1243C146.821 66.5675 153.51 69.2958 158.494 60.6633Z" fill="#457A14"/>
<path d="M30.6157 73.5559C24.8884 73.2262 14.191 76.9442 17.2198 94.4538C23.3486 94.2501 34.608 89.7854 30.6157 73.5559Z" fill="#457A14"/>
<path d="M87.0839 33.9179C86.5339 32.0747 86.9189 28.3104 92.8589 28C93.3402 29.8756 92.8589 33.6851 87.0839 33.9179Z" fill="#234A0F"/>
<path d="M84.8152 37.4104C85.0902 35.6318 84.3408 32.0747 79.1433 32.0747C78.6621 33.9826 79.1227 37.7209 84.8152 37.4104Z" fill="#234A0F"/>
<line x1="87.4" y1="32" x2="87.4" y2="45" stroke="#234A0F" stroke-width="0.8"/>
<line x1="84.4" y1="37" x2="84.4" y2="46" stroke="#234A0F" stroke-width="0.8"/>
</svg>
